<svg width="12" height="3" viewBox="0 0 12 3" fill="none" xmlns="http://www.w3.org/2000/svg">
<path d="M5.83333 1.83333C6.20152 1.83333 6.5 1.53486 6.5 1.16667C6.5 0.798477 6.20152 0.5 5.83333 0.5C5.46514 0.5 5.16667 0.798477 5.16667 1.16667C5.16667 1.53486 5.46514 1.83333 5.83333 1.83333Z" stroke="#1E1E22" stroke-linecap="round" stroke-linejoin="round"/>
<path d="M10.5 1.83333C10.8682 1.83333 11.1667 1.53486 11.1667 1.16667C11.1667 0.798477 10.8682 0.5 10.5 0.5C10.1318 0.5 9.83333 0.798477 9.83333 1.16667C9.83333 1.53486 10.1318 1.83333 10.5 1.83333Z" stroke="#1E1E22" stroke-linecap="round" stroke-linejoin="round"/>
<path d="M1.16667 1.83333C1.53486 1.83333 1.83333 1.53486 1.83333 1.16667C1.83333 0.798477 1.53486 0.5 1.16667 0.5C0.798477 0.5 0.5 0.798477 0.5 1.16667C0.5 1.53486 0.798477 1.83333 1.16667 1.83333Z" stroke="#1E1E22" stroke-linecap="round" stroke-linejoin="round"/>
</svg>
